<?xml version="1.0" encoding="UTF-8" standalone="no"?>
<!DOCTYPE svg PUBLIC "-//W3C//DTD SVG 1.1//EN" "http://www.w3.org/Graphics/SVG/1.1/DTD/svg11.dtd">
<svg xmlns="http://www.w3.org/2000/svg" version="1.1" viewBox="0.00 0.00 434.00 485.00">
<g stroke-width="2.00" fill="none" stroke-linecap="butt">
<path stroke="#ffc998" vector-effect="non-scaling-stroke" d="
  M 13.01 471.39
  A 0.61 0.61 0.0 0 0 13.62 472.00
  L 420.38 471.99
  A 0.61 0.61 0.0 0 0 420.99 471.38
  L 421.00 13.61
  A 0.61 0.61 0.0 0 0 420.39 13.00
  L 16.63 13.00
  A 0.61 0.61 0.0 0 0 16.02 13.61
  L 13.01 471.39"
/>
<path stroke="#ffc998" vector-effect="non-scaling-stroke" d="
  M 53.69 121.50
  C 42.64 104.20 35.50 83.06 37.40 62.26
  Q 39.03 44.50 48.36 31.32
  Q 48.59 31.00 48.20 31.00
  L 31.50 30.99
  Q 31.00 30.99 31.00 31.50
  L 29.98 453.36
  A 0.63 0.63 0.0 0 0 30.61 454.00
  L 74.04 454.01
  Q 74.53 454.01 74.66 453.54
  C 77.56 443.84 86.40 432.57 91.84 425.39
  Q 104.04 409.27 123.19 402.81
  C 128.90 400.89 131.51 396.08 136.06 390.09
  Q 146.71 376.08 157.56 362.21
  Q 166.79 350.43 168.35 348.68
  C 176.77 339.21 187.59 333.56 197.95 327.25
  C 200.47 325.72 203.13 323.33 203.46 320.67
  Q 204.58 311.39 205.46 308.47
  C 207.97 300.08 216.99 292.43 223.54 286.26
  C 226.89 283.10 229.54 281.09 227.20 276.76
  C 215.31 254.67 210.17 227.37 209.06 202.54
  Q 209.04 202.05 208.61 201.81
  Q 203.78 199.15 200.94 196.05
  Q 187.92 181.84 179.95 163.70
  C 173.78 149.65 170.89 133.05 169.29 117.59
  C 168.89 113.63 165.69 109.85 163.45 106.72
  Q 163.12 106.26 162.91 106.79
  Q 153.89 129.12 131.16 136.31
  Q 129.07 136.97 126.78 136.52
  Q 90.63 129.40 54.51 122.06
  Q 53.98 121.95 53.69 121.50"
/>
<path stroke="#ffc998" vector-effect="non-scaling-stroke" d="
  M 301.86 95.34
  C 307.67 83.74 312.41 75.49 325.04 70.90
  Q 330.52 68.91 333.76 69.72
  Q 368.04 78.24 402.51 86.90
  A 0.41 0.41 0.0 0 0 403.02 86.51
  L 404.00 33.50
  A 0.50 0.50 0.0 0 0 403.50 32.99
  L 148.00 33.00
  Q 147.28 33.00 147.88 33.40
  Q 174.95 51.56 168.18 84.43
  Q 168.06 85.02 168.65 85.12
  L 295.50 106.92
  Q 295.96 107.00 296.18 106.58
  Q 299.07 100.92 301.86 95.34"
/>
<path stroke="#ffc998" vector-effect="non-scaling-stroke" d="
  M 189.13 105.45
  C 189.82 110.26 192.97 124.25 196.88 127.13
  C 203.40 131.93 210.55 139.31 212.97 147.20
  A 1.59 1.59 0.0 0 0 216.07 146.84
  Q 216.46 141.12 218.17 134.54
  Q 219.02 131.25 222.52 128.27
  C 227.27 124.24 234.92 118.78 240.84 118.87
  Q 243.40 118.91 244.89 120.05
  Q 264.06 134.78 274.36 156.70
  Q 275.03 158.12 275.20 161.18
  C 275.42 165.02 271.72 170.41 269.88 173.89
  A 1.37 1.37 0.0 0 0 270.82 175.87
  C 274.05 176.56 282.21 178.59 282.91 173.27
  C 283.87 166.04 292.74 158.72 298.71 155.40
  Q 299.26 155.10 301.92 154.40
  Q 304.89 153.62 303.99 149.80
  Q 302.72 144.41 296.28 125.47
  Q 295.00 121.68 294.97 116.46
  Q 294.97 115.98 294.49 115.93
  L 189.52 105.04
  Q 189.07 105.00 189.13 105.45"
/>
<path stroke="#ffc998" vector-effect="non-scaling-stroke" d="
  M 331.89 164.51
  C 330.65 169.90 327.53 181.31 323.68 184.43
  Q 315.58 190.98 306.99 198.25
  A 2.80 2.79 -37.8 0 0 306.51 202.00
  C 310.20 207.22 314.60 213.98 313.52 220.98
  Q 313.03 224.15 310.02 230.05
  Q 301.12 247.52 288.60 271.15
  Q 282.04 283.53 281.26 297.90
  C 281.10 300.86 282.55 301.78 285.10 302.45
  C 293.97 304.79 302.45 308.18 310.30 313.45
  C 322.56 321.68 334.15 331.43 342.77 343.28
  C 349.41 352.39 360.81 368.61 356.03 380.21
  Q 351.05 392.30 339.99 403.51
  C 334.67 408.90 328.44 413.91 323.84 419.36
  Q 310.76 434.89 300.45 452.48
  Q 300.14 453.01 300.75 453.03
  L 401.50 455.00
  Q 402.01 455.01 402.01 454.50
  L 404.01 158.76
  Q 404.01 158.12 403.54 158.55
  Q 394.00 167.20 381.85 168.89
  Q 376.28 169.67 363.70 168.05
  Q 348.14 166.04 332.53 164.07
  Q 332.01 164.00 331.89 164.51"
/>
<path stroke="#ffc998" vector-effect="non-scaling-stroke" d="
  M 285.87 424.02
  C 289.85 410.91 295.65 395.29 304.37 384.29
  C 305.84 382.44 307.95 381.66 309.90 380.47
  A 1.54 1.54 0.0 0 0 309.67 377.73
  C 308.44 377.23 307.09 376.66 305.77 376.47
  C 291.87 374.42 278.70 371.13 269.07 360.43
  Q 265.57 356.55 263.68 355.42
  C 257.82 351.91 249.65 351.38 243.77 355.26
  C 240.32 357.55 237.20 362.32 234.39 365.93
  C 223.26 380.24 209.53 392.21 193.05 399.90
  C 182.37 404.89 173.15 409.09 161.44 415.60
  Q 159.10 416.90 157.16 419.11
  Q 148.63 428.87 139.42 434.16
  Q 125.17 442.34 112.79 452.44
  Q 112.09 453.02 113.00 453.02
  L 269.47 454.00
  Q 269.92 454.00 270.17 453.63
  Q 276.76 444.10 282.02 433.92
  Q 284.06 429.99 285.87 424.02"
/>
</g>
<path fill="#ffffff" d="
  M 1.04 470.87
  L 4.03 13.95
  A 13.04 13.04 0.0 0 1 17.06 1.00
  L 419.96 1.00
  A 13.04 13.04 0.0 0 1 433.00 14.04
  L 433.00 470.96
  A 13.04 13.04 0.0 0 1 419.96 484.00
  L 14.08 484.00
  A 13.04 13.04 0.0 0 1 1.04 470.87
  Z
  M 13.01 471.39
  A 0.61 0.61 0.0 0 0 13.62 472.00
  L 420.38 471.99
  A 0.61 0.61 0.0 0 0 420.99 471.38
  L 421.00 13.61
  A 0.61 0.61 0.0 0 0 420.39 13.00
  L 16.63 13.00
  A 0.61 0.61 0.0 0 0 16.02 13.61
  L 13.01 471.39
  Z"
/>
<path fill="#ff9331" d="
  M 13.01 471.39
  L 16.02 13.61
  A 0.61 0.61 0.0 0 1 16.63 13.00
  L 420.39 13.00
  A 0.61 0.61 0.0 0 1 421.00 13.61
  L 420.99 471.38
  A 0.61 0.61 0.0 0 1 420.38 471.99
  L 13.62 472.00
  A 0.61 0.61 0.0 0 1 13.01 471.39
  Z
  M 53.69 121.50
  C 42.64 104.20 35.50 83.06 37.40 62.26
  Q 39.03 44.50 48.36 31.32
  Q 48.59 31.00 48.20 31.00
  L 31.50 30.99
  Q 31.00 30.99 31.00 31.50
  L 29.98 453.36
  A 0.63 0.63 0.0 0 0 30.61 454.00
  L 74.04 454.01
  Q 74.53 454.01 74.66 453.54
  C 77.56 443.84 86.40 432.57 91.84 425.39
  Q 104.04 409.27 123.19 402.81
  C 128.90 400.89 131.51 396.08 136.06 390.09
  Q 146.71 376.08 157.56 362.21
  Q 166.79 350.43 168.35 348.68
  C 176.77 339.21 187.59 333.56 197.95 327.25
  C 200.47 325.72 203.13 323.33 203.46 320.67
  Q 204.58 311.39 205.46 308.47
  C 207.97 300.08 216.99 292.43 223.54 286.26
  C 226.89 283.10 229.54 281.09 227.20 276.76
  C 215.31 254.67 210.17 227.37 209.06 202.54
  Q 209.04 202.05 208.61 201.81
  Q 203.78 199.15 200.94 196.05
  Q 187.92 181.84 179.95 163.70
  C 173.78 149.65 170.89 133.05 169.29 117.59
  C 168.89 113.63 165.69 109.85 163.45 106.72
  Q 163.12 106.26 162.91 106.79
  Q 153.89 129.12 131.16 136.31
  Q 129.07 136.97 126.78 136.52
  Q 90.63 129.40 54.51 122.06
  Q 53.98 121.95 53.69 121.50
  Z
  M 301.86 95.34
  C 307.67 83.74 312.41 75.49 325.04 70.90
  Q 330.52 68.91 333.76 69.72
  Q 368.04 78.24 402.51 86.90
  A 0.41 0.41 0.0 0 0 403.02 86.51
  L 404.00 33.50
  A 0.50 0.50 0.0 0 0 403.50 32.99
  L 148.00 33.00
  Q 147.28 33.00 147.88 33.40
  Q 174.95 51.56 168.18 84.43
  Q 168.06 85.02 168.65 85.12
  L 295.50 106.92
  Q 295.96 107.00 296.18 106.58
  Q 299.07 100.92 301.86 95.34
  Z
  M 189.13 105.45
  C 189.82 110.26 192.97 124.25 196.88 127.13
  C 203.40 131.93 210.55 139.31 212.97 147.20
  A 1.59 1.59 0.0 0 0 216.07 146.84
  Q 216.46 141.12 218.17 134.54
  Q 219.02 131.25 222.52 128.27
  C 227.27 124.24 234.92 118.78 240.84 118.87
  Q 243.40 118.91 244.89 120.05
  Q 264.06 134.78 274.36 156.70
  Q 275.03 158.12 275.20 161.18
  C 275.42 165.02 271.72 170.41 269.88 173.89
  A 1.37 1.37 0.0 0 0 270.82 175.87
  C 274.05 176.56 282.21 178.59 282.91 173.27
  C 283.87 166.04 292.74 158.72 298.71 155.40
  Q 299.26 155.10 301.92 154.40
  Q 304.89 153.62 303.99 149.80
  Q 302.72 144.41 296.28 125.47
  Q 295.00 121.68 294.97 116.46
  Q 294.97 115.98 294.49 115.93
  L 189.52 105.04
  Q 189.07 105.00 189.13 105.45
  Z
  M 331.89 164.51
  C 330.65 169.90 327.53 181.31 323.68 184.43
  Q 315.58 190.98 306.99 198.25
  A 2.80 2.79 -37.8 0 0 306.51 202.00
  C 310.20 207.22 314.60 213.98 313.52 220.98
  Q 313.03 224.15 310.02 230.05
  Q 301.12 247.52 288.60 271.15
  Q 282.04 283.53 281.26 297.90
  C 281.10 300.86 282.55 301.78 285.10 302.45
  C 293.97 304.79 302.45 308.18 310.30 313.45
  C 322.56 321.68 334.15 331.43 342.77 343.28
  C 349.41 352.39 360.81 368.61 356.03 380.21
  Q 351.05 392.30 339.99 403.51
  C 334.67 408.90 328.44 413.91 323.84 419.36
  Q 310.76 434.89 300.45 452.48
  Q 300.14 453.01 300.75 453.03
  L 401.50 455.00
  Q 402.01 455.01 402.01 454.50
  L 404.01 158.76
  Q 404.01 158.12 403.54 158.55
  Q 394.00 167.20 381.85 168.89
  Q 376.28 169.67 363.70 168.05
  Q 348.14 166.04 332.53 164.07
  Q 332.01 164.00 331.89 164.51
  Z
  M 285.87 424.02
  C 289.85 410.91 295.65 395.29 304.37 384.29
  C 305.84 382.44 307.95 381.66 309.90 380.47
  A 1.54 1.54 0.0 0 0 309.67 377.73
  C 308.44 377.23 307.09 376.66 305.77 376.47
  C 291.87 374.42 278.70 371.13 269.07 360.43
  Q 265.57 356.55 263.68 355.42
  C 257.82 351.91 249.65 351.38 243.77 355.26
  C 240.32 357.55 237.20 362.32 234.39 365.93
  C 223.26 380.24 209.53 392.21 193.05 399.90
  C 182.37 404.89 173.15 409.09 161.44 415.60
  Q 159.10 416.90 157.16 419.11
  Q 148.63 428.87 139.42 434.16
  Q 125.17 442.34 112.79 452.44
  Q 112.09 453.02 113.00 453.02
  L 269.47 454.00
  Q 269.92 454.00 270.17 453.63
  Q 276.76 444.10 282.02 433.92
  Q 284.06 429.99 285.87 424.02
  Z"
/>
<path fill="#ffffff" d="
  M 54.51 122.06
  Q 90.63 129.40 126.78 136.52
  Q 129.07 136.97 131.16 136.31
  Q 153.89 129.12 162.91 106.79
  Q 163.12 106.26 163.45 106.72
  C 165.69 109.85 168.89 113.63 169.29 117.59
  C 170.89 133.05 173.78 149.65 179.95 163.70
  Q 187.92 181.84 200.94 196.05
  Q 203.78 199.15 208.61 201.81
  Q 209.04 202.05 209.06 202.54
  C 210.17 227.37 215.31 254.67 227.20 276.76
  C 229.54 281.09 226.89 283.10 223.54 286.26
  C 216.99 292.43 207.97 300.08 205.46 308.47
  Q 204.58 311.39 203.46 320.67
  C 203.13 323.33 200.47 325.72 197.95 327.25
  C 187.59 333.56 176.77 339.21 168.35 348.68
  Q 166.79 350.43 157.56 362.21
  Q 146.71 376.08 136.06 390.09
  C 131.51 396.08 128.90 400.89 123.19 402.81
  Q 104.04 409.27 91.84 425.39
  C 86.40 432.57 77.56 443.84 74.66 453.54
  Q 74.53 454.01 74.04 454.01
  L 30.61 454.00
  A 0.63 0.63 0.0 0 1 29.98 453.36
  L 31.00 31.50
  Q 31.00 30.99 31.50 30.99
  L 48.20 31.00
  Q 48.59 31.00 48.36 31.32
  Q 39.03 44.50 37.40 62.26
  C 35.50 83.06 42.64 104.20 53.69 121.50
  Q 53.98 121.95 54.51 122.06
  Z
  M 199.45 294.44
  C 203.58 288.64 208.63 283.74 213.91 278.99
  Q 214.26 278.68 214.08 278.26
  Q 200.28 245.10 197.53 209.23
  Q 197.50 208.82 197.17 208.56
  Q 192.93 205.25 188.22 199.50
  Q 164.38 170.40 159.78 133.73
  Q 159.70 133.12 159.25 133.53
  Q 146.65 145.01 130.04 148.73
  Q 129.02 148.95 128.00 148.75
  Q 90.49 141.29 52.99 133.78
  Q 46.50 132.48 43.16 127.14
  Q 42.78 126.53 42.78 127.24
  L 41.98 441.24
  Q 41.98 442.00 42.74 442.01
  L 65.75 442.02
  Q 66.21 442.02 66.45 441.62
  Q 71.69 432.70 82.24 418.75
  Q 97.13 399.04 119.09 391.75
  Q 119.58 391.59 119.92 391.21
  Q 123.63 387.00 125.31 384.79
  Q 136.83 369.58 148.36 354.38
  Q 158.98 340.40 164.39 335.64
  C 172.72 328.32 182.09 322.83 191.60 317.21
  Q 192.04 316.95 192.10 316.44
  C 192.96 308.47 194.74 301.07 199.45 294.44
  Z"
/>
<path fill="#ffffff" d="
  M 301.86 95.34
  Q 299.07 100.92 296.18 106.58
  Q 295.96 107.00 295.50 106.92
  L 168.65 85.12
  Q 168.06 85.02 168.18 84.43
  Q 174.95 51.56 147.88 33.40
  Q 147.28 33.00 148.00 33.00
  L 403.50 32.99
  A 0.50 0.50 0.0 0 1 404.00 33.50
  L 403.02 86.51
  A 0.41 0.41 0.0 0 1 402.51 86.90
  Q 368.04 78.24 333.76 69.72
  Q 330.52 68.91 325.04 70.90
  C 312.41 75.49 307.67 83.74 301.86 95.34
  Z
  M 182.05 75.44
  L 288.52 93.74
  Q 289.09 93.84 289.36 93.33
  C 292.62 87.27 296.03 80.05 299.65 75.26
  Q 310.64 60.73 329.50 57.74
  C 330.93 57.52 333.45 57.62 335.14 58.04
  Q 362.96 64.93 390.77 71.90
  Q 391.30 72.03 391.31 71.49
  L 391.80 45.53
  Q 391.81 45.00 391.28 45.00
  L 175.48 45.00
  Q 174.88 45.00 175.14 45.54
  Q 181.90 59.37 181.54 74.82
  Q 181.53 75.35 182.05 75.44
  Z"
/>
<path fill="#ffffff" d="
  M 196.88 127.13
  C 192.97 124.25 189.82 110.26 189.13 105.45
  Q 189.07 105.00 189.52 105.04
  L 294.49 115.93
  Q 294.97 115.98 294.97 116.46
  Q 295.00 121.68 296.28 125.47
  Q 302.72 144.41 303.99 149.80
  Q 304.89 153.62 301.92 154.40
  Q 299.26 155.10 298.71 155.40
  C 292.74 158.72 283.87 166.04 282.91 173.27
  C 282.21 178.59 274.05 176.56 270.82 175.87
  A 1.37 1.37 0.0 0 1 269.88 173.89
  C 271.72 170.41 275.42 165.02 275.20 161.18
  Q 275.03 158.12 274.36 156.70
  Q 264.06 134.78 244.89 120.05
  Q 243.40 118.91 240.84 118.87
  C 234.92 118.78 227.27 124.24 222.52 128.27
  Q 219.02 131.25 218.17 134.54
  Q 216.46 141.12 216.07 146.84
  A 1.59 1.59 0.0 0 1 212.97 147.20
  C 210.55 139.31 203.40 131.93 196.88 127.13
  Z
  M 214.00 119.58
  L 205.91 118.71
  Q 205.51 118.67 205.81 118.92
  L 210.31 122.76
  Q 210.59 123.01 210.87 122.75
  L 214.07 119.78
  Q 214.26 119.60 214.00 119.58
  Z
  M 283.97 126.84
  L 268.01 125.17
  A 0.19 0.19 0.0 0 0 267.85 125.48
  Q 278.06 136.53 284.44 150.16
  Q 284.65 150.61 285.05 150.32
  L 290.25 146.55
  Q 290.61 146.29 290.48 145.86
  L 284.51 127.28
  Q 284.38 126.88 283.97 126.84
  Z"
/>
<path fill="#ffffff" d="
  M 323.68 184.43
  C 327.53 181.31 330.65 169.90 331.89 164.51
  Q 332.01 164.00 332.53 164.07
  Q 348.14 166.04 363.70 168.05
  Q 376.28 169.67 381.85 168.89
  Q 394.00 167.20 403.54 158.55
  Q 404.01 158.12 404.01 158.76
  L 402.01 454.50
  Q 402.01 455.01 401.50 455.00
  L 300.75 453.03
  Q 300.14 453.01 300.45 452.48
  Q 310.76 434.89 323.84 419.36
  C 328.44 413.91 334.67 408.90 339.99 403.51
  Q 351.05 392.30 356.03 380.21
  C 360.81 368.61 349.41 352.39 342.77 343.28
  C 334.15 331.43 322.56 321.68 310.30 313.45
  C 302.45 308.18 293.97 304.79 285.10 302.45
  C 282.55 301.78 281.10 300.86 281.26 297.90
  Q 282.04 283.53 288.60 271.15
  Q 301.12 247.52 310.02 230.05
  Q 313.03 224.15 313.52 220.98
  C 314.60 213.98 310.20 207.22 306.51 202.00
  A 2.80 2.79 -37.8 0 1 306.99 198.25
  Q 315.58 190.98 323.68 184.43
  Z
  M 367.73 180.54
  C 358.85 179.39 349.95 178.10 341.02 177.21
  Q 340.50 177.16 340.36 177.67
  C 337.11 189.53 330.38 194.41 321.14 201.94
  Q 320.71 202.29 320.99 202.76
  Q 326.98 213.09 324.86 224.29
  C 323.79 229.95 320.45 236.35 317.55 241.81
  Q 306.94 261.79 296.59 281.91
  Q 294.69 285.60 293.83 292.53
  Q 293.77 293.05 294.27 293.18
  Q 306.37 296.18 314.60 301.91
  C 327.24 310.71 339.72 319.88 349.22 332.14
  C 357.26 342.50 364.07 352.61 367.66 364.72
  C 370.01 372.63 369.42 379.85 366.02 387.03
  C 360.06 399.64 350.80 410.15 340.38 419.73
  C 332.84 426.66 327.60 433.24 322.06 441.07
  Q 321.80 441.45 322.26 441.46
  L 389.53 442.79
  A 0.57 0.57 0.0 0 0 390.11 442.22
  L 391.88 179.24
  Q 391.89 178.62 391.29 178.80
  C 383.17 181.29 376.70 181.70 367.73 180.54
  Z"
/>
<path fill="#ffffff" d="
  M 304.37 384.29
  C 295.65 395.29 289.85 410.91 285.87 424.02
  Q 284.06 429.99 282.02 433.92
  Q 276.76 444.10 270.17 453.63
  Q 269.92 454.00 269.47 454.00
  L 113.00 453.02
  Q 112.09 453.02 112.79 452.44
  Q 125.17 442.34 139.42 434.16
  Q 148.63 428.87 157.16 419.11
  Q 159.10 416.90 161.44 415.60
  C 173.15 409.09 182.37 404.89 193.05 399.90
  C 209.53 392.21 223.26 380.24 234.39 365.93
  C 237.20 362.32 240.32 357.55 243.77 355.26
  C 249.65 351.38 257.82 351.91 263.68 355.42
  Q 265.57 356.55 269.07 360.43
  C 278.70 371.13 291.87 374.42 305.77 376.47
  C 307.09 376.66 308.44 377.23 309.67 377.73
  A 1.54 1.54 0.0 0 1 309.90 380.47
  C 307.95 381.66 305.84 382.44 304.37 384.29
  Z
  M 151.25 441.28
  L 262.98 441.98
  Q 263.48 441.98 263.77 441.56
  Q 267.82 435.41 271.21 428.88
  Q 273.24 424.98 275.10 418.80
  Q 280.30 401.58 288.96 385.68
  Q 289.22 385.21 288.69 385.07
  C 278.26 382.35 266.54 376.57 259.97 368.21
  Q 257.94 365.62 256.13 364.90
  Q 251.35 362.99 248.16 367.44
  Q 231.74 390.33 209.62 404.58
  Q 204.59 407.83 194.95 412.18
  Q 182.25 417.91 169.95 424.52
  Q 167.35 425.92 165.08 428.28
  Q 158.55 435.06 151.07 440.79
  Q 150.43 441.27 151.25 441.28
  Z"
/>
</svg>
