<svg width="175" height="87" viewBox="0 0 175 87" fill="none" xmlns="http://www.w3.org/2000/svg">
<g filter="url(#filter0_d_34_391)">
<path d="M1 22.6652C1 18.5798 1.58306 15.1297 2.74918 12.3149C3.93474 9.50005 5.61589 7.19345 7.79265 5.39509C9.87223 3.67492 12.3114 2.34569 15.1101 1.40741C17.9087 0.469138 21.1253 0 24.7597 0C27.2669 0 29.4922 0.107511 31.4357 0.322532C33.3793 0.537554 35.109 0.820992 36.625 1.17285C38.1604 1.5247 39.5208 1.92542 40.7064 2.37501C41.9114 2.8246 43.0289 3.29374 44.059 3.78243V17.1822H35.2839C34.2927 15.7748 33.1849 14.7388 31.9605 14.0741C30.7555 13.4095 29.5116 13.0772 28.2289 13.0772C27.1405 13.0772 26.0813 13.2922 25.0512 13.7223C24.0406 14.1523 23.1369 14.7779 22.34 15.5988C21.5432 16.4198 20.9018 17.4265 20.4159 18.6189C19.93 19.7918 19.6871 21.1405 19.6871 22.6652C19.6871 26.0469 20.4451 28.5197 21.961 30.0835C23.4964 31.6473 25.6732 32.4292 28.4913 32.4292C29.191 32.4292 29.8906 32.3901 30.5903 32.3119C31.3094 32.2337 32.0285 32.1164 32.7476 31.96V28.4122H27.1503V20.3782H45.2834V41.7826C43.748 42.4277 42.1155 43.0434 40.3857 43.6298C38.6754 44.1967 36.9554 44.6952 35.2256 45.1252C33.5153 45.5357 31.8342 45.8192 30.1822 45.9755C28.5302 46.1515 27.0045 46.2394 25.6051 46.2394C23.3118 46.2394 21.1156 46.0733 19.0166 45.741C16.9175 45.4087 14.9546 44.8125 13.1277 43.9524C11.3202 43.0923 9.66816 42.0172 8.17164 40.7271C6.67512 39.4174 5.39239 37.8829 4.32344 36.1236C3.27393 34.3448 2.45765 32.3412 1.87459 30.1128C1.29153 27.8649 1 25.3823 1 22.6652Z" fill="#1C49BD"/>
<path d="M61.1427 45.7116V33.0449L64.8742 32.1066L52.0761 14.1035L47.3533 13.3998V0.674386H72.25V13.3998L69.3347 14.1035L75.2527 23.3103L81.1708 14.1035L78.2555 13.3998V0.674386H103.123V13.3998L98.4294 14.1035L85.6312 32.1066L89.3628 33.0449V45.7116H61.1427Z" fill="#1C49BD"/>
<path d="M128.923 23.7501V45.7116H106.563V32.9863L110.295 32.2532V14.1328L106.563 13.3998V0.674386H128.923L138.311 17.9739L147.61 0.674386H170V13.3998L166.268 14.1328V32.2532L170 32.9863V45.7116H147.61V23.7501L138.311 39.9354L128.923 23.7501Z" fill="#1C49BD"/>
<path d="M49.0558 52.6549C49.7905 51.1771 50.5251 49.7169 51.2598 48.2743C51.9944 46.7965 52.6591 45.4243 53.2539 44.1576C53.8486 42.891 54.3558 41.765 54.7756 40.7798C55.1954 39.7595 55.4403 38.9502 55.5103 38.352C55.5803 37.7187 55.5278 37.1733 55.3529 36.7159C55.178 36.2585 54.8806 35.8891 54.4608 35.6076C54.076 35.3261 53.6037 35.115 53.044 34.9742C52.5192 34.7983 51.9245 34.6928 51.2598 34.6576C50.1053 34.5872 48.7235 34.6224 47.1142 34.7631C45.54 34.8687 44.0182 35.0974 42.5489 35.4492C41.0796 35.7659 39.8027 36.2233 38.7182 36.8215C37.6687 37.4196 37.1089 38.1585 37.039 39.0382C37.004 39.5308 37.0914 39.9706 37.3013 40.3576C37.4762 40.6743 37.7911 40.9734 38.2459 41.2548C38.7357 41.5363 39.4528 41.6419 40.3974 41.5715C40.5723 41.5715 40.7822 41.5539 41.0271 41.5187C41.237 41.4835 41.4994 41.4484 41.8142 41.4132C42.1291 41.3428 42.4964 41.2548 42.9162 41.1493L40.3449 44.6326C39.8551 45.3363 39.3304 45.7586 38.7706 45.8993C38.2109 46.04 37.7036 46.0752 37.2489 46.0049C37.004 45.9697 36.5142 45.8465 35.7795 45.6354C35.0799 45.4243 34.3627 45.1076 33.6281 44.6854C32.9284 44.2632 32.3162 43.7002 31.7914 42.9965C31.2667 42.2576 31.0568 41.3428 31.1617 40.2521C31.3016 38.9854 31.8439 37.8243 32.7884 36.7687C33.733 35.678 35.0449 34.7455 36.7241 33.9715C38.4383 33.1974 40.4673 32.5992 42.8112 32.177C45.1901 31.7548 47.8664 31.5437 50.84 31.5437C53.0789 31.5437 54.8631 31.79 56.1925 32.2826C57.5219 32.74 58.4839 33.3557 59.0786 34.1298C59.7083 34.8687 60.0057 35.7483 59.9707 36.7687C59.9707 37.7539 59.7608 38.7743 59.341 39.8298C59.1311 40.3224 58.8163 41.0085 58.3965 41.8882C58.0116 42.7326 57.5393 43.7354 56.9796 44.8965C56.4199 46.0224 55.8252 47.2715 55.1954 48.6438C54.5657 50.016 53.936 51.441 53.3063 52.9188C54.2509 52.9892 55.108 53.0771 55.8776 53.1827C56.6823 53.2882 57.312 53.3762 57.7667 53.4466C58.2915 53.5873 58.4664 53.816 58.2915 54.1327C57.9766 54.766 57.6618 55.241 57.3469 55.5577C57.0671 55.8744 56.7522 56.1031 56.4024 56.2438C56.0525 56.3494 55.6677 56.4021 55.2479 56.4021C54.8281 56.3669 54.3558 56.3318 53.8311 56.2966C53.5162 56.2966 53.2014 56.2966 52.8865 56.2966C52.5717 56.2614 52.2393 56.2262 51.8895 56.191C51.2248 57.7744 50.5776 59.3401 49.9479 60.8883C49.3532 62.4364 48.7934 63.9142 48.2687 65.3216C47.7789 66.6939 47.3416 67.9605 46.9568 69.1216C46.572 70.2828 46.3096 71.2504 46.1697 72.0244C45.9598 73.1152 45.8023 74.1356 45.6974 75.0856C45.6274 75.8948 45.5924 76.7393 45.5924 77.6189C45.5924 78.4985 45.7324 79.2022 46.0122 79.73C45.2776 79.9411 44.6304 80.1171 44.0707 80.2578C43.5459 80.3985 43.0911 80.5041 42.7063 80.5745C42.2865 80.68 41.9367 80.768 41.6568 80.8384C40.6772 81.0847 39.9776 81.0495 39.5578 80.7328C39.173 80.4513 39.068 79.7476 39.2429 78.6217C39.3129 77.8476 39.4178 76.968 39.5578 75.9828C39.7327 75.0328 39.9776 73.942 40.2924 72.7105C40.6423 71.5142 41.0796 70.1772 41.6043 68.6994C42.1641 67.1864 42.8637 65.5151 43.7033 63.6855C44.1931 62.6299 44.7528 61.4688 45.3825 60.2022C46.0122 58.9003 46.6769 57.5105 47.3766 56.0327C45.8373 56.0327 44.1756 56.1382 42.3914 56.3494C41.4119 56.4901 40.4499 56.6484 39.5053 56.8244C38.7007 57.0003 37.8261 57.2114 36.8815 57.4577C35.972 57.6688 35.1149 57.9151 34.3102 58.1966C34.2053 57.9151 34.1353 57.6336 34.1003 57.3521C34.1003 57.0707 34.1178 56.8068 34.1528 56.5605C34.1878 56.3142 34.2403 56.0679 34.3102 55.8216C34.3802 55.5753 34.4851 55.329 34.6251 55.0827C34.835 54.6605 35.1673 54.1327 35.6221 53.4993C37.2663 53.2882 38.8406 53.1299 40.3449 53.0243C41.8492 52.9188 43.1786 52.8308 44.333 52.7604C45.6974 52.6901 46.9743 52.6549 48.1637 52.6549C48.3387 52.6197 48.4786 52.6197 48.5835 52.6549C48.7235 52.6549 48.8809 52.6549 49.0558 52.6549Z" fill="#CF711A"/>
<path d="M75.9757 62.8411C75.6259 64.1781 75.1536 65.4272 74.5589 66.5883C73.9642 67.7494 73.247 68.7522 72.4074 69.5966C71.6028 70.4411 70.6757 71.092 69.6262 71.5494C68.6117 72.042 67.4922 72.2883 66.2678 72.2883C64.8334 72.2883 63.6965 71.9717 62.8569 71.3383C62.0522 70.7402 61.44 69.9837 61.0202 69.0689C60.6354 68.154 60.408 67.1513 60.338 66.0605C60.2331 64.9698 60.1806 63.9494 60.1806 62.9994C60.1806 62.3309 60.2681 61.592 60.443 60.7827C60.5829 59.9734 60.7928 59.1466 61.0727 58.3021C61.3526 57.4577 61.7024 56.6132 62.1222 55.7688C62.577 54.9243 63.1017 54.1503 63.6965 53.4466C63.9064 52.8484 64.2212 52.3206 64.641 51.8632C65.0958 51.4058 65.6031 51.0364 66.1628 50.7549C66.7575 50.4382 67.3872 50.2095 68.0519 50.0688C68.7166 49.8928 69.3638 49.8049 69.9935 49.8049C70.0985 49.8049 70.1859 49.8225 70.2559 49.8577C70.3608 49.8928 70.4658 49.928 70.5707 49.9632C71.0255 49.9984 71.5853 50.1743 72.25 50.491C72.9496 50.8077 73.6143 51.2827 74.244 51.916C74.9087 52.5493 75.4685 53.3586 75.9232 54.3438C76.378 55.2938 76.6054 56.4549 76.6054 57.8271C76.6054 58.1086 76.5879 58.4605 76.5529 58.8827C76.518 59.2697 76.483 59.604 76.448 59.8855C77.2526 59.5688 78.0922 59.1818 78.9668 58.7244C79.8414 58.267 80.681 57.792 81.4856 57.2994C82.3252 56.7716 83.0949 56.2438 83.7946 55.716C84.4942 55.1882 85.054 54.7132 85.4738 54.291C85.8236 53.9743 86.121 53.7984 86.3658 53.7632C86.6107 53.728 86.7857 53.7984 86.8906 53.9743C86.9956 54.1503 87.013 54.3966 86.9431 54.7132C86.8731 55.0299 86.6807 55.3818 86.3658 55.7688C86.1909 55.9799 85.7361 56.4021 85.0015 57.0355C84.3018 57.6688 83.4622 58.3549 82.4827 59.0938C81.5031 59.8327 80.4361 60.554 79.2817 61.2577C78.1272 61.9614 77.0252 62.4892 75.9757 62.8411ZM67.1074 54.8188C67.0024 55.1355 66.9499 55.4697 66.9499 55.8216C66.9499 56.3845 66.9849 56.9827 67.0549 57.616C67.1249 58.2142 67.2998 58.7596 67.5797 59.2521C67.8595 59.7447 68.2968 60.167 68.8915 60.5188C69.5212 60.8355 70.3783 60.9938 71.4628 60.9938C71.6377 60.9938 71.8127 60.9938 71.9876 60.9938C72.1625 60.9586 72.3374 60.9235 72.5123 60.8883C72.6173 60.4309 72.7047 60.0262 72.7747 59.6744C72.8797 59.2873 72.9321 58.9531 72.9321 58.6716C73.0021 58.0031 73.0021 57.317 72.9321 56.6132C72.8622 55.9095 72.7222 55.2762 72.5123 54.7132C72.3374 54.1151 72.0925 53.6401 71.7777 53.2882C71.4978 52.9012 71.148 52.7077 70.7282 52.7077C70.0635 52.7077 69.4163 52.9012 68.7866 53.2882C68.1919 53.6401 67.6321 54.1503 67.1074 54.8188ZM63.7489 64.1077C63.7489 64.7411 63.7839 65.3744 63.8539 66.0077C63.9239 66.6059 64.0638 67.1513 64.2737 67.6439C64.4836 68.1013 64.7635 68.4883 65.1133 68.805C65.4631 69.0865 65.9179 69.2272 66.4777 69.2272C67.1074 69.2272 67.6846 69.0865 68.2094 68.805C68.7341 68.4883 69.2064 68.1013 69.6262 67.6439C70.046 67.1513 70.4133 66.6059 70.7282 66.0077C71.078 65.3744 71.3754 64.7235 71.6203 64.0549C71.3754 64.0901 71.1305 64.1253 70.8856 64.1605C70.6757 64.1605 70.4308 64.1605 70.1509 64.1605C68.8216 64.1605 67.6671 63.7735 66.6876 62.9994C65.743 62.1901 65.0084 61.1698 64.4836 59.9383C64.2737 60.6772 64.0988 61.3985 63.9588 62.1022C63.8189 62.8059 63.7489 63.4744 63.7489 64.1077Z" fill="#CF711A"/>
<path d="M79.5965 70.9689C79.3516 71.3559 79.0893 71.6022 78.8094 71.7078C78.4945 71.8485 78.2322 71.8661 78.0223 71.7605C77.7774 71.6902 77.6199 71.5143 77.55 71.2328C77.48 70.9513 77.55 70.5994 77.7599 70.1772C77.8648 69.9661 78.1097 69.4911 78.4945 68.7522C78.8444 68.0133 79.2817 67.1337 79.8064 66.1133C80.2962 65.0577 80.8384 63.9318 81.4332 62.7355C82.0279 61.504 82.5876 60.3429 83.1124 59.2521C83.6721 58.1614 84.1794 57.1938 84.6342 56.3494C85.0889 55.4697 85.4213 54.8364 85.6312 54.4493C85.2464 54.0975 84.984 53.8512 84.8441 53.7105C84.7041 53.5345 84.5992 53.1827 84.5292 52.6549C84.4592 52.1975 84.5642 51.5993 84.8441 50.8604C85.1239 50.1215 85.4913 49.4178 85.946 48.7493C86.4008 48.0456 86.9081 47.4475 87.4678 46.9549C88.0276 46.4623 88.5698 46.216 89.0946 46.216C90.0741 46.216 90.7563 46.5326 91.1411 47.166C91.5609 47.7993 91.8058 48.4502 91.8758 49.1188C91.9457 49.5762 91.9107 50.1567 91.7708 50.8604C91.6309 51.5641 91.3685 52.1975 90.9837 52.7604C91.0886 52.8308 91.2286 52.9188 91.4035 53.0243C91.5784 53.0947 91.8583 53.1299 92.2431 53.1299C92.8028 53.1299 93.1877 53.0947 93.3976 53.0243C93.6424 52.954 94.0098 52.9188 94.4995 52.9188C95.0943 52.9188 95.584 53.0771 95.9688 53.3938C96.3537 53.6753 96.6685 54.0447 96.9134 54.5021C97.1583 54.9244 97.3332 55.3994 97.4382 55.9271C97.5781 56.4197 97.6656 56.8771 97.7005 57.2994C97.8055 58.179 97.5781 59.0938 97.0184 60.0438C96.4586 60.9938 95.7764 62.0318 94.9718 63.1577C94.482 63.8614 93.9923 64.6531 93.5025 65.5327C93.0127 66.4124 92.8028 67.204 92.8728 67.9077C92.9428 68.3652 93.0652 68.7346 93.2401 69.0161C93.415 69.2976 93.9048 69.4383 94.7094 69.4383C95.3042 69.4383 95.9514 69.2272 96.651 68.805C97.3857 68.3476 98.1203 67.7846 98.855 67.1161C99.6246 66.4124 100.377 65.6559 101.111 64.8466C101.846 64.0022 102.528 63.1929 103.158 62.4188C103.788 61.6096 104.312 60.8883 104.732 60.2549C105.187 59.6216 105.519 59.1642 105.729 58.8827C105.904 58.6012 106.132 58.4077 106.411 58.3021C106.691 58.1966 106.936 58.1966 107.146 58.3021C107.356 58.4077 107.478 58.6188 107.513 58.9355C107.583 59.2521 107.461 59.6744 107.146 60.2022C106.936 60.554 106.569 61.117 106.044 61.891C105.554 62.6651 104.942 63.5272 104.207 64.4772C103.508 65.4272 102.721 66.4124 101.846 67.4327C100.972 68.4179 100.044 69.3327 99.0649 70.1772C98.1203 70.9865 97.1583 71.655 96.1787 72.1828C95.2342 72.7105 94.3246 72.9744 93.45 72.9744C92.5405 72.9744 91.7883 72.7985 91.1936 72.4467C90.5989 72.0948 90.1091 71.6726 89.7243 71.18C89.3744 70.6522 89.1121 70.0892 88.9371 69.4911C88.7972 68.8577 88.7447 68.2772 88.7797 67.7494C88.8147 67.3272 88.9196 66.8874 89.0946 66.43C89.3045 65.9374 89.5319 65.4448 89.7767 64.9522C90.0566 64.4244 90.3365 63.9142 90.6164 63.4216C90.9312 62.8938 91.2111 62.3836 91.456 61.891C92.0507 60.8707 92.523 60.0086 92.8728 59.3049C93.2576 58.566 93.45 57.9503 93.45 57.4577C93.45 57.141 93.3801 56.8595 93.2401 56.6132C93.1002 56.3669 92.8728 56.2438 92.5579 56.2438C92.348 56.2438 92.1906 56.2614 92.0857 56.2966C92.0157 56.2966 91.9282 56.2966 91.8233 56.2966C91.7533 56.2966 91.6309 56.3142 91.456 56.3494C91.316 56.3494 91.0886 56.3494 90.7738 56.3494C90.319 56.3494 89.9342 56.279 89.6193 56.1382C89.3045 55.9975 89.0071 55.8919 88.7272 55.8216C88.5873 56.0679 88.2725 56.5956 87.7827 57.4049C87.2929 58.2142 86.7157 59.1642 86.051 60.2549C85.4213 61.3457 84.7391 62.4892 84.0045 63.6855C83.3048 64.8818 82.6401 66.0077 82.0104 67.0633C81.3807 68.0837 80.8559 68.9633 80.4361 69.7022C79.9813 70.4059 79.7015 70.8281 79.5965 70.9689Z" fill="#CF711A"/>
<path d="M112.341 69.4383C113.426 69.4383 114.615 69.0161 115.91 68.1716C117.239 67.292 118.516 66.2716 119.74 65.1105C121 63.9494 122.137 62.7707 123.151 61.5744C124.201 60.3429 124.988 59.3577 125.513 58.6188C125.827 58.1614 126.125 57.8975 126.405 57.8271C126.684 57.7216 126.894 57.7568 127.034 57.9327C127.174 58.1086 127.227 58.3901 127.192 58.7771C127.157 59.129 126.999 59.5336 126.719 59.991C126.475 60.4133 126.055 61.029 125.46 61.8383C124.9 62.6124 124.218 63.4744 123.413 64.4244C122.644 65.3392 121.752 66.2892 120.737 67.2744C119.758 68.2244 118.726 69.104 117.641 69.9133C116.557 70.6874 115.437 71.3207 114.283 71.8133C113.128 72.3411 111.991 72.605 110.872 72.605C109.333 72.605 108.038 72.3059 106.989 71.7078C105.974 71.1448 105.152 70.4059 104.522 69.4911C103.928 68.5763 103.508 67.5735 103.263 66.4827C103.018 65.3568 102.896 64.2485 102.896 63.1577C102.896 62.067 103.14 60.7123 103.63 59.0938C104.12 57.4753 104.837 55.9271 105.782 54.4493C106.761 52.9364 107.986 51.6521 109.455 50.5965C110.924 49.5058 112.656 48.9604 114.65 48.9604C115.77 48.9604 116.714 49.3475 117.484 50.1215C118.288 50.8956 118.673 51.9512 118.638 53.2882C118.638 53.9216 118.533 54.5549 118.323 55.1882C118.113 55.7864 117.834 56.3318 117.484 56.8244C117.134 57.2818 116.714 57.6512 116.224 57.9327C115.77 58.2142 115.262 58.3549 114.703 58.3549C114.248 58.3549 113.898 58.1966 113.653 57.8799C113.443 57.5281 113.303 57.141 113.233 56.7188C113.198 56.2614 113.198 55.8216 113.233 55.3993C113.303 54.9771 113.373 54.6956 113.443 54.5549C113.618 54.3086 113.81 54.1327 114.02 54.0271C114.23 53.9216 114.475 53.7984 114.755 53.6577C114.965 53.5521 115.122 53.3938 115.227 53.1827C115.367 52.9716 115.437 52.7429 115.437 52.4966C115.437 52.2503 115.367 52.0391 115.227 51.8632C115.087 51.6873 114.86 51.5993 114.545 51.5993C114.23 51.5993 113.653 51.8632 112.813 52.391C112.009 52.8836 111.169 53.6401 110.295 54.6605C109.455 55.6456 108.703 56.8947 108.038 58.4077C107.374 59.9207 107.024 61.6799 106.989 63.6855C106.954 64.8466 107.111 65.7966 107.461 66.5355C107.811 67.2744 108.248 67.855 108.773 68.2772C109.298 68.6994 109.875 68.9985 110.505 69.1744C111.134 69.3503 111.746 69.4383 112.341 69.4383Z" fill="#CF711A"/>
<path d="M146.713 60.2549C145.663 61.8031 144.474 63.3161 143.144 64.7938C141.815 66.2364 140.398 67.5383 138.894 68.6994C137.424 69.8253 135.903 70.7402 134.328 71.4439C132.789 72.1476 131.285 72.4994 129.815 72.4994C129.046 72.4994 128.206 72.3059 127.297 71.9189C126.422 71.567 125.617 71.0041 124.883 70.23C124.148 69.4559 123.553 68.4531 123.099 67.2216C122.679 65.9901 122.556 64.4948 122.731 62.7355C122.871 61.2929 123.309 59.7799 124.043 58.1966C124.813 56.5781 125.74 55.1003 126.824 53.7632C127.944 52.4262 129.186 51.3178 130.55 50.4382C131.949 49.5586 133.349 49.1188 134.748 49.1188C136.078 49.1188 137.04 49.453 137.634 50.1215C138.229 50.7901 138.491 51.6169 138.421 52.6021C138.317 53.6929 138.002 54.6956 137.477 55.6105C136.987 56.5253 136.392 57.3521 135.693 58.091C134.993 58.8299 134.241 59.4984 133.436 60.0966C132.667 60.6947 131.932 61.2401 131.232 61.7327C130.463 62.2605 129.728 62.7707 129.028 63.2633C128.329 63.7207 127.716 64.1429 127.192 64.53C127.227 65.4096 127.384 66.1485 127.664 66.7466C127.944 67.3448 128.294 67.8374 128.714 68.2244C129.133 68.5763 129.606 68.8402 130.13 69.0161C130.69 69.1568 131.25 69.2272 131.81 69.2272C132.999 69.2272 134.241 68.8577 135.535 68.1189C136.83 67.3448 138.089 66.43 139.314 65.3744C140.573 64.2837 141.727 63.1577 142.777 61.9966C143.861 60.8355 144.753 59.8327 145.453 58.9883C145.698 58.7068 145.943 58.5484 146.188 58.5133C146.468 58.4429 146.678 58.4781 146.818 58.6188C146.992 58.7244 147.08 58.9355 147.08 59.2521C147.08 59.5336 146.957 59.8679 146.713 60.2549ZM133.279 52.1271C132.859 52.1271 132.352 52.3382 131.757 52.7604C131.197 53.1827 130.638 53.7984 130.078 54.6077C129.518 55.3818 128.993 56.3494 128.504 57.5105C128.014 58.6364 127.647 59.9383 127.402 61.416C127.821 61.0994 128.276 60.7827 128.766 60.466C129.256 60.1142 129.746 59.7447 130.235 59.3577C131.74 58.1966 132.789 57.1762 133.384 56.2966C133.979 55.4169 134.311 54.6605 134.381 54.0271C134.451 53.3586 134.381 52.8836 134.171 52.6021C133.961 52.2854 133.664 52.1271 133.279 52.1271Z" fill="#CF711A"/>
</g>
<defs>
<filter id="filter0_d_34_391" x="0" y="0" width="175" height="87" filterUnits="userSpaceOnUse" color-interpolation-filters="sRGB">
<feFlood flood-opacity="0" result="BackgroundImageFix"/>
<feColorMatrix in="SourceAlpha" type="matrix" values="0 0 0 0 0 0 0 0 0 0 0 0 0 0 0 0 0 0 127 0" result="hardAlpha"/>
<feOffset dx="2" dy="3"/>
<feGaussianBlur stdDeviation="1.5"/>
<feComposite in2="hardAlpha" operator="out"/>
<feColorMatrix type="matrix" values="0 0 0 0 0 0 0 0 0 0 0 0 0 0 0 0 0 0 0.25 0"/>
<feBlend mode="normal" in2="BackgroundImageFix" result="effect1_dropShadow_34_391"/>
<feBlend mode="normal" in="SourceGraphic" in2="effect1_dropShadow_34_391" result="shape"/>
</filter>
</defs>
</svg>
