<svg width="78" height="37" viewBox="0 0 78 37" fill="none" xmlns="http://www.w3.org/2000/svg">
<path d="M0 10.3533C0 8.48708 0.269105 6.9111 0.807314 5.62531C1.35449 4.33953 2.13041 3.2859 3.13507 2.46442C4.09488 1.67867 5.22063 1.07149 6.51233 0.642893C7.80404 0.214298 9.2886 0 10.966 0C12.1232 0 13.1502 0.0491099 14.0473 0.14733C14.9443 0.245549 15.7426 0.375021 16.4423 0.535744C17.1509 0.696467 17.7789 0.879513 18.326 1.08488C18.8822 1.29025 19.398 1.50455 19.8734 1.72778V7.84865H15.8234C15.3659 7.20576 14.8546 6.73252 14.2895 6.42893C13.7333 6.12534 13.1592 5.97355 12.5672 5.97355C12.0649 5.97355 11.576 6.07177 11.1006 6.26821C10.6341 6.46465 10.217 6.75038 9.84923 7.1254C9.48146 7.50042 9.18544 7.96027 8.96119 8.50494C8.73693 9.04068 8.62481 9.65679 8.62481 10.3533C8.62481 11.898 8.97464 13.0275 9.67431 13.7418C10.383 14.4562 11.3876 14.8133 12.6883 14.8133C13.0112 14.8133 13.3341 14.7955 13.6571 14.7598C13.989 14.724 14.3209 14.6705 14.6528 14.599V12.9784H12.0693V9.30856H20.4385V19.0859C19.7299 19.3805 18.9764 19.6618 18.178 19.9297C17.3886 20.1886 16.5948 20.4163 15.7964 20.6128C15.0071 20.8003 14.2312 20.9297 13.4687 21.0012C12.7062 21.0815 12.0021 21.1217 11.3562 21.1217C10.2977 21.1217 9.28411 21.0458 8.31534 20.894C7.34656 20.7422 6.44057 20.4699 5.59738 20.077C4.76315 19.6841 4.00069 19.193 3.30999 18.6037C2.61929 18.0055 2.02726 17.3045 1.5339 16.5009C1.04951 15.6884 0.672762 14.7731 0.403657 13.7552C0.134552 12.7284 0 11.5944 0 10.3533Z" fill="white"/>
<path d="M27.7582 20.8806V15.0946L29.4804 14.666L23.5736 6.44232L21.3938 6.12088V0.308053H32.8846V6.12088L31.5391 6.44232L34.2705 10.6479L37.0019 6.44232L35.6564 6.12088V0.308053H47.1337V6.12088L44.9674 6.44232L39.0605 14.666L40.7828 15.0946V20.8806H27.7582Z" fill="white"/>
<path d="M59.0416 10.8488V20.8806H48.7214V15.0678L50.4437 14.733V6.45572L48.7214 6.12088V0.308053H59.0416L63.3742 8.21028L67.6664 0.308053H78V6.12088L76.2777 6.45572V14.733L78 15.0678V20.8806H67.6664V10.8488L63.3742 18.2421L59.0416 10.8488Z" fill="white"/>
<path d="M22.1796 24.0522C22.5187 23.3772 22.8578 22.7102 23.1968 22.0512C23.5359 21.3762 23.8427 20.7494 24.1172 20.1708C24.3917 19.5922 24.6258 19.0779 24.8195 18.6278C25.0133 18.1617 25.1263 17.7921 25.1586 17.5188C25.1909 17.2295 25.1667 16.9804 25.0859 16.7715C25.0052 16.5625 24.868 16.3938 24.6742 16.2652C24.4966 16.1366 24.2786 16.0402 24.0203 15.9759C23.7781 15.8955 23.5036 15.8473 23.1968 15.8312C22.664 15.7991 22.0262 15.8152 21.2835 15.8795C20.5569 15.9277 19.8545 16.0321 19.1764 16.1929C18.4983 16.3375 17.9089 16.5465 17.4084 16.8197C16.924 17.0929 16.6657 17.4304 16.6334 17.8322C16.6172 18.0573 16.6576 18.2582 16.7545 18.435C16.8352 18.5796 16.9805 18.7162 17.1904 18.8448C17.4165 18.9734 17.7475 19.0216 18.1834 18.9895C18.2641 18.9895 18.361 18.9814 18.474 18.9653C18.5709 18.9493 18.692 18.9332 18.8373 18.9171C18.9826 18.885 19.1522 18.8448 19.3459 18.7966L18.1592 20.3877C17.9331 20.7092 17.6909 20.9021 17.4326 20.9663C17.1743 21.0306 16.9401 21.0467 16.7302 21.0146C16.6172 20.9985 16.3912 20.9422 16.0521 20.8458C15.7292 20.7494 15.3982 20.6047 15.0591 20.4119C14.7362 20.219 14.4536 19.9618 14.2114 19.6404C13.9692 19.3029 13.8723 18.885 13.9208 18.3867C13.9854 17.8081 14.2356 17.2778 14.6716 16.7956C15.1075 16.2973 15.713 15.8714 16.488 15.5178C17.2792 15.1642 18.2157 14.891 19.2975 14.6981C20.3954 14.5053 21.6306 14.4088 23.0031 14.4088C24.0364 14.4088 24.8599 14.5213 25.4735 14.7464C26.087 14.9553 26.531 15.2366 26.8055 15.5902C27.0962 15.9277 27.2334 16.3295 27.2172 16.7956C27.2172 17.2456 27.1204 17.7117 26.9266 18.1939C26.8297 18.4189 26.6844 18.7323 26.4907 19.1341C26.3131 19.5198 26.0951 19.9779 25.8367 20.5083C25.5784 21.0226 25.3039 21.5932 25.0133 22.22C24.7226 22.8468 24.432 23.4977 24.1414 24.1728C24.5773 24.2049 24.9729 24.2451 25.3281 24.2933C25.6995 24.3415 25.9901 24.3817 26.2 24.4139C26.4422 24.4782 26.523 24.5826 26.4422 24.7273C26.2969 25.0166 26.1516 25.2336 26.0063 25.3782C25.8771 25.5229 25.7318 25.6273 25.5703 25.6916C25.4089 25.7398 25.2313 25.7639 25.0375 25.7639C24.8437 25.7479 24.6258 25.7318 24.3836 25.7157C24.2383 25.7157 24.0929 25.7157 23.9476 25.7157C23.8023 25.6996 23.6489 25.6836 23.4875 25.6675C23.1807 26.3908 22.882 27.106 22.5913 27.8132C22.3169 28.5203 22.0585 29.1954 21.8163 29.8383C21.5903 30.4651 21.3884 31.0437 21.2108 31.5741C21.0332 32.1045 20.9121 32.5465 20.8475 32.9001C20.7507 33.3983 20.678 33.8644 20.6296 34.2983C20.5973 34.668 20.5811 35.0537 20.5811 35.4556C20.5811 35.8574 20.6457 36.1788 20.7749 36.4199C20.4358 36.5163 20.1371 36.5967 19.8788 36.661C19.6366 36.7253 19.4267 36.7735 19.2491 36.8056C19.0553 36.8538 18.8938 36.894 18.7647 36.9262C18.3126 37.0387 17.9896 37.0226 17.7959 36.878C17.6183 36.7494 17.5698 36.4279 17.6506 35.9136C17.6829 35.56 17.7313 35.1582 17.7959 34.7082C17.8766 34.2742 17.9896 33.776 18.135 33.2135C18.2964 32.667 18.4983 32.0563 18.7405 31.3812C18.9988 30.6901 19.3217 29.9267 19.7092 29.0909C19.9353 28.6087 20.1936 28.0784 20.4843 27.4997C20.7749 26.9051 21.0817 26.2702 21.4046 25.5952C20.6942 25.5952 19.9272 25.6434 19.1037 25.7398C18.6516 25.8041 18.2076 25.8764 17.7717 25.9568C17.4003 26.0372 16.9967 26.1336 16.5607 26.2461C16.1409 26.3425 15.7453 26.455 15.374 26.5836C15.3255 26.455 15.2932 26.3265 15.2771 26.1979C15.2771 26.0693 15.2851 25.9488 15.3013 25.8363C15.3174 25.7238 15.3417 25.6113 15.374 25.4987C15.4062 25.3862 15.4547 25.2737 15.5193 25.1612C15.6161 24.9684 15.7695 24.7273 15.9794 24.438C16.7383 24.3415 17.4649 24.2692 18.1592 24.221C18.8535 24.1728 19.467 24.1326 19.9999 24.1005C20.6296 24.0683 21.2189 24.0522 21.7679 24.0522C21.8486 24.0362 21.9132 24.0362 21.9616 24.0522C22.0262 24.0522 22.0989 24.0522 22.1796 24.0522Z" fill="#F77C0B"/>
<path d="M34.6042 28.7052C34.4427 29.3159 34.2247 29.8865 33.9502 30.4169C33.6758 30.9473 33.3448 31.4053 32.9573 31.7911C32.5859 32.1768 32.158 32.4741 31.6736 32.6831C31.2054 32.9081 30.6887 33.0206 30.1236 33.0206C29.4616 33.0206 28.9368 32.8759 28.5493 32.5866C28.178 32.3134 27.8954 31.9679 27.7016 31.55C27.524 31.1321 27.4191 30.674 27.3868 30.1758C27.3383 29.6775 27.3141 29.2115 27.3141 28.7775C27.3141 28.4721 27.3545 28.1346 27.4352 27.7649C27.4998 27.3953 27.5967 27.0176 27.7259 26.6318C27.855 26.2461 28.0165 25.8604 28.2102 25.4746C28.4201 25.0889 28.6623 24.7353 28.9368 24.4139C29.0337 24.1406 29.179 23.8995 29.3728 23.6906C29.5827 23.4817 29.8168 23.3129 30.0751 23.1843C30.3496 23.0397 30.6403 22.9352 30.947 22.8709C31.2538 22.7906 31.5525 22.7504 31.8432 22.7504C31.8916 22.7504 31.932 22.7584 31.9643 22.7745C32.0127 22.7906 32.0611 22.8066 32.1096 22.8227C32.3195 22.8388 32.5778 22.9191 32.8846 23.0638C33.2075 23.2084 33.5143 23.4254 33.8049 23.7147C34.1117 24.004 34.3701 24.3737 34.58 24.8237C34.7899 25.2577 34.8948 25.788 34.8948 26.4149C34.8948 26.5434 34.8867 26.7042 34.8706 26.897C34.8544 27.0738 34.8383 27.2265 34.8221 27.3551C35.1935 27.2104 35.581 27.0337 35.9847 26.8247C36.3883 26.6158 36.7758 26.3988 37.1472 26.1738C37.5347 25.9327 37.8899 25.6916 38.2129 25.4505C38.5358 25.2094 38.7941 24.9925 38.9879 24.7996C39.1494 24.6549 39.2866 24.5746 39.3996 24.5585C39.5126 24.5424 39.5934 24.5746 39.6418 24.6549C39.6903 24.7353 39.6983 24.8478 39.666 24.9925C39.6337 25.1371 39.5449 25.2978 39.3996 25.4746C39.3189 25.5711 39.109 25.7639 38.7699 26.0532C38.447 26.3425 38.0595 26.656 37.6074 26.9935C37.1553 27.331 36.6628 27.6605 36.13 27.9819C35.5972 28.3034 35.0886 28.5445 34.6042 28.7052ZM30.5111 25.0407C30.4627 25.1853 30.4384 25.338 30.4384 25.4987C30.4384 25.7559 30.4546 26.0291 30.4869 26.3184C30.5192 26.5917 30.5999 26.8408 30.7291 27.0658C30.8582 27.2908 31.0601 27.4837 31.3346 27.6444C31.6252 27.7891 32.0208 27.8614 32.5213 27.8614C32.602 27.8614 32.6828 27.8614 32.7635 27.8614C32.8442 27.8453 32.925 27.8292 33.0057 27.8132C33.0541 27.6042 33.0945 27.4194 33.1268 27.2587C33.1752 27.0819 33.1994 26.9292 33.1994 26.8006C33.2317 26.4952 33.2317 26.1818 33.1994 25.8604C33.1672 25.5389 33.1026 25.2496 33.0057 24.9925C32.925 24.7192 32.8119 24.5023 32.6666 24.3415C32.5374 24.1647 32.376 24.0763 32.1822 24.0763C31.8755 24.0763 31.5767 24.1647 31.2861 24.3415C31.0116 24.5023 30.7533 24.7353 30.5111 25.0407ZM28.961 29.2838C28.961 29.5731 28.9772 29.8624 29.0095 30.1517C29.0418 30.4249 29.1064 30.674 29.2032 30.899C29.3001 31.108 29.4293 31.2848 29.5908 31.4294C29.7522 31.558 29.9621 31.6223 30.2205 31.6223C30.5111 31.6223 30.7775 31.558 31.0197 31.4294C31.2619 31.2848 31.4799 31.108 31.6736 30.899C31.8674 30.674 32.0369 30.4249 32.1822 30.1517C32.3437 29.8624 32.4809 29.565 32.594 29.2597C32.4809 29.2757 32.3679 29.2918 32.2549 29.3079C32.158 29.3079 32.045 29.3079 31.9158 29.3079C31.3023 29.3079 30.7694 29.1311 30.3173 28.7775C29.8814 28.4078 29.5423 27.9417 29.3001 27.3792C29.2032 27.7167 29.1225 28.0462 29.0579 28.3677C28.9933 28.6891 28.961 28.9945 28.961 29.2838Z" fill="#F77C0B"/>
<path d="M36.2753 32.4179C36.1623 32.5947 36.0412 32.7072 35.912 32.7554C35.7667 32.8197 35.6456 32.8277 35.5487 32.7795C35.4357 32.7474 35.363 32.667 35.3308 32.5384C35.2985 32.4098 35.3308 32.2491 35.4276 32.0563C35.4761 31.9598 35.5891 31.7428 35.7667 31.4053C35.9282 31.0678 36.13 30.666 36.3722 30.1999C36.5982 29.7177 36.8485 29.2034 37.123 28.657C37.3975 28.0944 37.6558 27.564 37.898 27.0658C38.1564 26.5676 38.3905 26.1256 38.6004 25.7398C38.8103 25.338 38.9637 25.0487 39.0605 24.8719C38.8829 24.7112 38.7618 24.5987 38.6973 24.5344C38.6327 24.454 38.5842 24.2933 38.5519 24.0522C38.5196 23.8433 38.5681 23.5701 38.6973 23.2325C38.8264 22.895 38.996 22.5736 39.2059 22.2682C39.4158 21.9468 39.6499 21.6735 39.9082 21.4485C40.1666 21.2235 40.4168 21.111 40.659 21.111C41.1111 21.111 41.426 21.2557 41.6036 21.545C41.7973 21.8343 41.9104 22.1316 41.9427 22.437C41.975 22.6459 41.9588 22.9111 41.8942 23.2325C41.8296 23.554 41.7085 23.8433 41.5309 24.1005C41.5794 24.1326 41.644 24.1728 41.7247 24.221C41.8054 24.2531 41.9346 24.2692 42.1122 24.2692C42.3705 24.2692 42.5481 24.2531 42.645 24.221C42.758 24.1889 42.9276 24.1728 43.1536 24.1728C43.4281 24.1728 43.6542 24.2451 43.8318 24.3898C44.0094 24.5183 44.1547 24.6871 44.2677 24.896C44.3807 25.0889 44.4615 25.3059 44.5099 25.547C44.5745 25.772 44.6149 25.9809 44.631 26.1738C44.6795 26.5756 44.5745 26.9935 44.3162 27.4274C44.0578 27.8614 43.743 28.3355 43.3716 28.8498C43.1456 29.1713 42.9195 29.5329 42.6935 29.9347C42.4674 30.3365 42.3705 30.6981 42.4028 31.0196C42.4351 31.2285 42.4916 31.3973 42.5724 31.5259C42.6531 31.6544 42.8791 31.7187 43.2505 31.7187C43.525 31.7187 43.8237 31.6223 44.1466 31.4294C44.4857 31.2205 44.8248 30.9633 45.1638 30.658C45.5191 30.3365 45.8662 29.991 46.2053 29.6213C46.5443 29.2356 46.8592 28.8659 47.1498 28.5123C47.4405 28.1426 47.6827 27.8132 47.8764 27.5239C48.0863 27.2346 48.2397 27.0256 48.3366 26.897C48.4173 26.7685 48.5223 26.6801 48.6514 26.6318C48.7806 26.5836 48.8936 26.5836 48.9905 26.6318C49.0874 26.6801 49.1439 26.7765 49.16 26.9211C49.1923 27.0658 49.1358 27.2587 48.9905 27.4997C48.8936 27.6605 48.7241 27.9176 48.4819 28.2712C48.2559 28.6248 47.9733 29.0186 47.6342 29.4525C47.3113 29.8865 46.948 30.3365 46.5443 30.8026C46.1407 31.2526 45.7128 31.6705 45.2607 32.0563C44.8248 32.4259 44.3807 32.7313 43.9287 32.9724C43.4927 33.2135 43.0729 33.334 42.6692 33.334C42.2494 33.334 41.9023 33.2536 41.6278 33.0929C41.3533 32.9322 41.1273 32.7393 40.9497 32.5143C40.7882 32.2732 40.6671 32.0161 40.5864 31.7428C40.5218 31.4535 40.4976 31.1883 40.5137 30.9473C40.5299 30.7544 40.5783 30.5535 40.659 30.3446C40.7559 30.1195 40.8609 29.8945 40.9739 29.6695C41.1031 29.4284 41.2322 29.1954 41.3614 28.9704C41.5067 28.7293 41.6359 28.4962 41.7489 28.2712C42.0234 27.8051 42.2414 27.4114 42.4028 27.0899C42.5804 26.7524 42.6692 26.4711 42.6692 26.2461C42.6692 26.1015 42.6369 25.9729 42.5724 25.8604C42.5078 25.7479 42.4028 25.6916 42.2575 25.6916C42.1606 25.6916 42.088 25.6996 42.0395 25.7157C42.0072 25.7157 41.9669 25.7157 41.9184 25.7157C41.8861 25.7157 41.8296 25.7238 41.7489 25.7398C41.6843 25.7398 41.5794 25.7398 41.4341 25.7398C41.2241 25.7398 41.0465 25.7077 40.9012 25.6434C40.7559 25.5791 40.6187 25.5309 40.4895 25.4987C40.4249 25.6113 40.2796 25.8523 40.0535 26.222C39.8275 26.5917 39.5611 27.0256 39.2543 27.5239C38.9637 28.0221 38.6488 28.5445 38.3097 29.0909C37.9868 29.6374 37.68 30.1517 37.3894 30.6339C37.0988 31.1 36.8566 31.5018 36.6628 31.8393C36.4529 32.1607 36.3238 32.3536 36.2753 32.4179Z" fill="#F77C0B"/>
<path d="M51.3882 31.7187C51.8888 31.7187 52.4377 31.5259 53.0352 31.1401C53.6487 30.7383 54.2381 30.2722 54.8032 29.7418C55.3844 29.2115 55.9092 28.673 56.3774 28.1266C56.8618 27.564 57.2251 27.114 57.4673 26.7765C57.6126 26.5676 57.7499 26.447 57.879 26.4149C58.0082 26.3667 58.1051 26.3827 58.1697 26.4631C58.2343 26.5434 58.2585 26.672 58.2423 26.8488C58.2262 27.0095 58.1535 27.1944 58.0244 27.4033C57.9113 27.5962 57.7176 27.8774 57.4431 28.2471C57.1847 28.6007 56.8699 28.9945 56.4985 29.4284C56.1433 29.8463 55.7316 30.2803 55.2633 30.7303C54.8112 31.1642 54.3349 31.566 53.8344 31.9357C53.3339 32.2893 52.8172 32.5786 52.2844 32.8036C51.7515 33.0447 51.2268 33.1652 50.7101 33.1652C49.9997 33.1652 49.4022 33.0286 48.9179 32.7554C48.4496 32.4982 48.0702 32.1607 47.7795 31.7428C47.5051 31.325 47.3113 30.8669 47.1983 30.3687C47.0852 29.8543 47.0287 29.3481 47.0287 28.8498C47.0287 28.3516 47.1418 27.7328 47.3678 26.9935C47.5939 26.2541 47.9249 25.547 48.3608 24.8719C48.8129 24.1808 49.378 23.5942 50.0562 23.112C50.7343 22.6138 51.5336 22.3646 52.4539 22.3646C52.9706 22.3646 53.4065 22.5414 53.7617 22.895C54.1331 23.2486 54.3107 23.7308 54.2946 24.3415C54.2946 24.6308 54.2461 24.9201 54.1492 25.2094C54.0524 25.4827 53.9232 25.7318 53.7617 25.9568C53.6003 26.1657 53.4065 26.3345 53.1805 26.4631C52.9706 26.5917 52.7364 26.656 52.4781 26.656C52.2682 26.656 52.1067 26.5836 51.9937 26.439C51.8968 26.2783 51.8323 26.1015 51.8 25.9086C51.7838 25.6996 51.7838 25.4987 51.8 25.3059C51.8323 25.113 51.8645 24.9844 51.8968 24.9201C51.9776 24.8076 52.0664 24.7273 52.1633 24.6791C52.2601 24.6308 52.3732 24.5746 52.5023 24.5103C52.5992 24.4621 52.6719 24.3898 52.7203 24.2933C52.7849 24.1969 52.8172 24.0924 52.8172 23.9799C52.8172 23.8674 52.7849 23.771 52.7203 23.6906C52.6557 23.6102 52.5508 23.5701 52.4054 23.5701C52.2601 23.5701 51.9937 23.6906 51.6062 23.9317C51.2348 24.1567 50.8473 24.5023 50.4437 24.9684C50.0562 25.4184 49.709 25.989 49.4022 26.6801C49.0955 27.3712 48.934 28.1748 48.9179 29.0909C48.9017 29.6213 48.9744 30.0552 49.1358 30.3928C49.2973 30.7303 49.4991 30.9955 49.7413 31.1883C49.9835 31.3812 50.2499 31.5178 50.5406 31.5982C50.8312 31.6786 51.1137 31.7187 51.3882 31.7187Z" fill="#F77C0B"/>
<path d="M67.252 27.5239C66.7676 28.231 66.2186 28.9222 65.605 29.5972C64.9915 30.2562 64.3376 30.8508 63.6433 31.3812C62.9651 31.8955 62.2628 32.3134 61.5362 32.6349C60.8257 32.9563 60.1314 33.117 59.4533 33.117C59.0981 33.117 58.7106 33.0286 58.2908 32.8518C57.8871 32.6911 57.5157 32.434 57.1767 32.0804C56.8376 31.7268 56.5631 31.2687 56.3532 30.7062C56.1595 30.1436 56.1029 29.4606 56.1837 28.657C56.2483 27.998 56.4501 27.3069 56.7892 26.5836C57.1444 25.8443 57.5723 25.1693 58.0728 24.5585C58.5895 23.9478 59.1627 23.4415 59.7924 23.0397C60.4382 22.6379 61.0841 22.437 61.7299 22.437C62.3435 22.437 62.7875 22.5897 63.062 22.895C63.3365 23.2004 63.4576 23.5781 63.4253 24.0281C63.3768 24.5264 63.2315 24.9844 62.9893 25.4023C62.7633 25.8202 62.4888 26.1979 62.1659 26.5354C61.843 26.8729 61.4958 27.1783 61.1244 27.4515C60.7692 27.7248 60.4302 27.9739 60.1072 28.1989C59.752 28.44 59.4129 28.673 59.09 28.898C58.7671 29.107 58.4845 29.2999 58.2423 29.4766C58.2585 29.8785 58.3311 30.216 58.4603 30.4892C58.5895 30.7624 58.7509 30.9874 58.9447 31.1642C59.1384 31.325 59.3564 31.4455 59.5986 31.5259C59.857 31.5902 60.1153 31.6223 60.3736 31.6223C60.9226 31.6223 61.4958 31.4535 62.0932 31.116C62.6906 30.7624 63.2719 30.3446 63.837 29.8624C64.4183 29.3641 64.9511 28.8498 65.4355 28.3194C65.936 27.7891 66.3478 27.331 66.6707 26.9453C66.7837 26.8167 66.8967 26.7444 67.0098 26.7283C67.1389 26.6961 67.2358 26.7122 67.3004 26.7765C67.3811 26.8247 67.4215 26.9211 67.4215 27.0658C67.4215 27.1944 67.365 27.3471 67.252 27.5239ZM61.0518 23.8112C60.858 23.8112 60.6239 23.9076 60.3494 24.1005C60.0911 24.2933 59.8327 24.5746 59.5744 24.9442C59.3161 25.2978 59.0739 25.7398 58.8478 26.2702C58.6218 26.7845 58.4522 27.3792 58.3392 28.0542C58.533 27.9096 58.7429 27.7649 58.9689 27.6203C59.195 27.4596 59.421 27.2908 59.6471 27.114C60.3413 26.5836 60.8257 26.1175 61.1002 25.7157C61.3747 25.3139 61.5281 24.9684 61.5604 24.6791C61.5927 24.3737 61.5604 24.1567 61.4635 24.0281C61.3666 23.8835 61.2294 23.8112 61.0518 23.8112Z" fill="#F77C0B"/>
</svg>
